<svg xmlns="http://www.w3.org/2000/svg" width="1400.1" height="800" viewBox="0 0 1400.1 800">
  <defs>
    <style>
      .cls-1 {
        fill: #d3f2ff;
      }

      .cls-2 {
        fill: #fff;
      }

      .cls-3 {
        fill: #acf2f9;
      }
    </style>
  </defs>
  <g id="Layer_2" data-name="Layer 2">
    <g id="Layer_1-2" data-name="Layer 1">
      <rect class="cls-1" x="0.1" width="1400" height="170.87"/>
      <g>
        <g>
          <path class="cls-2" d="M.1,551.68v-278c-.33-.59.31-1.2,0-1.81V552.05C.42,551.93-.23,551.8.1,551.68Z"/>
          <path class="cls-2" d="M1353.22,110.62a67.72,67.72,0,0,0-56.34,30.09,79.66,79.66,0,0,0-150.74-23.06A79.29,79.29,0,0,0,1100.07,103a80.38,80.38,0,0,0-11.89.88A79.65,79.65,0,0,0,935.35,123a66.62,66.62,0,0,0-113.91-17.36,66.65,66.65,0,0,0-122.1-21.39,57,57,0,0,0-98.6,36.41,65.4,65.4,0,0,0-70.25-25.11A79.66,79.66,0,0,0,378.54,129c0,1.63.07,3.25.16,4.86A79.65,79.65,0,0,0,243.88,148.2,137.12,137.12,0,0,0,120.41,70.79C67.81,70.79,23.09,100.42.1,143.9v128c.31.61-.33,1.22,0,1.81v278c-.33.12.32.25,0,.37V800h1400V131.75C1387.74,118.74,1372.58,110.62,1353.22,110.62ZM700.1,613.83C582,613.83,486.27,518.09,486.27,400S582,186.17,700.1,186.17,913.93,281.91,913.93,400,818.19,613.83,700.1,613.83Z"/>
        </g>
        <path class="cls-3" d="M1086.29,226.28a80.37,80.37,0,0,1,69.13,39.33,80.45,80.45,0,0,1,75.91,15.6,80.42,80.42,0,0,1,115.46-60.81A80.4,80.4,0,0,0,1207,259.62a44.11,44.11,0,0,0-49.11-3.93,80.43,80.43,0,0,0-152,50.95A80.42,80.42,0,0,1,1086.29,226.28Z"/>
        <path class="cls-3" d="M108.93,457.34a72.54,72.54,0,0,1,70.23,54.41,72.48,72.48,0,0,1,75.94-10.23,72.51,72.51,0,0,1,124.33-15.73,63.82,63.82,0,0,0-125.71,8.57,63.77,63.77,0,0,0-67.62-1.5,63.82,63.82,0,0,0-116.22-24.1A72.18,72.18,0,0,1,108.93,457.34Z"/>
        <path class="cls-3" d="M353.27,251.55A61.25,61.25,0,0,1,407.86,285a61.34,61.34,0,0,1,60.6-17.88,32.86,32.86,0,0,0-60,4.65A61.26,61.26,0,0,0,292.22,307.7,61.27,61.27,0,0,1,353.27,251.55Z"/>
        <path class="cls-3" d="M1151,497.72a61.26,61.26,0,0,1,29.35,56.92,61.35,61.35,0,0,1,61.08,16.11,32.85,32.85,0,0,0-53.71-27.11,61.26,61.26,0,0,0-118-29.55A61.26,61.26,0,0,1,1151,497.72Z"/>
      </g>
    </g>
  </g>
</svg>
