<svg id="visual" viewBox="0 0 2000 200" width="2000" height="200" xmlns="http://www.w3.org/2000/svg" xmlns:xlink="http://www.w3.org/1999/xlink" version="1.1"><rect x="0" y="0" width="2000" height="200" fill="#D3F2FF"></rect><path d="M0 57L154 104L308 69L462 47L615 96L769 53L923 69L1077 90L1231 44L1385 63L1538 96L1692 97L1846 45L2000 98L2000 201L1846 201L1692 201L1538 201L1385 201L1231 201L1077 201L923 201L769 201L615 201L462 201L308 201L154 201L0 201Z" fill="#d3f2ff"></path><path d="M0 74L154 85L308 80L462 109L615 76L769 94L923 104L1077 126L1231 75L1385 121L1538 112L1692 82L1846 89L2000 76L2000 201L1846 201L1692 201L1538 201L1385 201L1231 201L1077 201L923 201L769 201L615 201L462 201L308 201L154 201L0 201Z" fill="#a0eaec"></path><path d="M0 124L154 150L308 134L462 148L615 136L769 130L923 148L1077 146L1231 113L1385 107L1538 150L1692 138L1846 135L2000 111L2000 201L1846 201L1692 201L1538 201L1385 201L1231 201L1077 201L923 201L769 201L615 201L462 201L308 201L154 201L0 201Z" fill="#82dfc0"></path><path d="M0 139L154 139L308 142L462 165L615 140L769 145L923 173L1077 155L1231 140L1385 148L1538 179L1692 169L1846 166L2000 140L2000 201L1846 201L1692 201L1538 201L1385 201L1231 201L1077 201L923 201L769 201L615 201L462 201L308 201L154 201L0 201Z" fill="#8dcd82"></path></svg>