<svg id="visual" viewBox="0 0 2000 200" width="2000" height="200" xmlns="http://www.w3.org/2000/svg" xmlns:xlink="http://www.w3.org/1999/xlink" version="1.1"><rect x="0" y="0" width="2000" height="200" fill="#ffeba9"></rect><path d="M0 27L27.8 33.5C55.7 40 111.3 53 166.8 50.7C222.3 48.3 277.7 30.7 333.2 22.7C388.7 14.7 444.3 16.3 500 31.8C555.7 47.3 611.3 76.7 666.8 79.3C722.3 82 777.7 58 833.2 55.7C888.7 53.3 944.3 72.7 1000 76.5C1055.7 80.3 1111.3 68.7 1166.8 62.7C1222.3 56.7 1277.7 56.3 1333.2 61.3C1388.7 66.3 1444.3 76.7 1500 69.5C1555.7 62.3 1611.3 37.7 1666.8 29C1722.3 20.3 1777.7 27.7 1833.2 32.8C1888.7 38 1944.3 41 1972.2 42.5L2000 44L2000 201L1972.2 201C1944.3 201 1888.7 201 1833.2 201C1777.7 201 1722.3 201 1666.8 201C1611.3 201 1555.7 201 1500 201C1444.3 201 1388.7 201 1333.2 201C1277.7 201 1222.3 201 1166.8 201C1111.3 201 1055.7 201 1000 201C944.3 201 888.7 201 833.2 201C777.7 201 722.3 201 666.8 201C611.3 201 555.7 201 500 201C444.3 201 388.7 201 333.2 201C277.7 201 222.3 201 166.8 201C111.3 201 55.7 201 27.8 201L0 201Z" fill="#d9fff8"></path><path d="M0 72L27.8 66.7C55.7 61.3 111.3 50.7 166.8 47C222.3 43.3 277.7 46.7 333.2 51.3C388.7 56 444.3 62 500 78.5C555.7 95 611.3 122 666.8 134.3C722.3 146.7 777.7 144.3 833.2 134.7C888.7 125 944.3 108 1000 98.2C1055.7 88.3 1111.3 85.7 1166.8 94.7C1222.3 103.7 1277.7 124.3 1333.2 134C1388.7 143.7 1444.3 142.3 1500 141.2C1555.7 140 1611.3 139 1666.8 122.3C1722.3 105.7 1777.7 73.3 1833.2 66.2C1888.7 59 1944.3 77 1972.2 86L2000 95L2000 201L1972.2 201C1944.3 201 1888.7 201 1833.2 201C1777.7 201 1722.3 201 1666.8 201C1611.3 201 1555.7 201 1500 201C1444.3 201 1388.7 201 1333.2 201C1277.7 201 1222.3 201 1166.8 201C1111.3 201 1055.7 201 1000 201C944.3 201 888.7 201 833.2 201C777.7 201 722.3 201 666.8 201C611.3 201 555.7 201 500 201C444.3 201 388.7 201 333.2 201C277.7 201 222.3 201 166.8 201C111.3 201 55.7 201 27.8 201L0 201Z" fill="#abf0f4"></path><path d="M0 145L27.8 140.8C55.7 136.7 111.3 128.3 166.8 122.5C222.3 116.7 277.7 113.3 333.2 115.3C388.7 117.3 444.3 124.7 500 134.8C555.7 145 611.3 158 666.8 161.2C722.3 164.3 777.7 157.7 833.2 157.5C888.7 157.3 944.3 163.7 1000 157.7C1055.7 151.7 1111.3 133.3 1166.8 121.5C1222.3 109.7 1277.7 104.3 1333.2 103.7C1388.7 103 1444.3 107 1500 111.3C1555.7 115.7 1611.3 120.3 1666.8 129.8C1722.3 139.3 1777.7 153.7 1833.2 149.2C1888.7 144.7 1944.3 121.3 1972.2 109.7L2000 98L2000 201L1972.2 201C1944.3 201 1888.7 201 1833.2 201C1777.7 201 1722.3 201 1666.8 201C1611.3 201 1555.7 201 1500 201C1444.3 201 1388.7 201 1333.2 201C1277.7 201 1222.3 201 1166.8 201C1111.3 201 1055.7 201 1000 201C944.3 201 888.7 201 833.2 201C777.7 201 722.3 201 666.8 201C611.3 201 555.7 201 500 201C444.3 201 388.7 201 333.2 201C277.7 201 222.3 201 166.8 201C111.3 201 55.7 201 27.8 201L0 201Z" fill="#7bdff8"></path><path d="M0 133L27.8 142.2C55.7 151.3 111.3 169.7 166.8 170.2C222.3 170.7 277.7 153.3 333.2 150.2C388.7 147 444.3 158 500 155.8C555.7 153.7 611.3 138.3 666.8 141C722.3 143.7 777.7 164.3 833.2 173.7C888.7 183 944.3 181 1000 170.8C1055.7 160.7 1111.3 142.3 1166.8 145.5C1222.3 148.7 1277.7 173.3 1333.2 174.5C1388.7 175.7 1444.3 153.3 1500 150.7C1555.7 148 1611.3 165 1666.8 164.3C1722.3 163.7 1777.7 145.3 1833.2 143.5C1888.7 141.7 1944.3 156.3 1972.2 163.7L2000 171L2000 201L1972.2 201C1944.3 201 1888.7 201 1833.2 201C1777.7 201 1722.3 201 1666.8 201C1611.3 201 1555.7 201 1500 201C1444.3 201 1388.7 201 1333.2 201C1277.7 201 1222.3 201 1166.8 201C1111.3 201 1055.7 201 1000 201C944.3 201 888.7 201 833.2 201C777.7 201 722.3 201 666.8 201C611.3 201 555.7 201 500 201C444.3 201 388.7 201 333.2 201C277.7 201 222.3 201 166.8 201C111.3 201 55.7 201 27.8 201L0 201Z" fill="#4fccff"></path></svg>