<svg id="visual" viewBox="0 0 2000 200" width="2000" height="200" xmlns="http://www.w3.org/2000/svg" xmlns:xlink="http://www.w3.org/1999/xlink" version="1.1"><rect x="0" y="0" width="2000" height="200" fill="#001220"></rect><path d="M0 186L27.8 178.3C55.7 170.7 111.3 155.3 166.8 139.3C222.3 123.3 277.7 106.7 333.2 100.3C388.7 94 444.3 98 500 101.3C555.7 104.7 611.3 107.3 666.8 103.2C722.3 99 777.7 88 833.2 78C888.7 68 944.3 59 1000 58.5C1055.7 58 1111.3 66 1166.8 68.5C1222.3 71 1277.7 68 1333.2 86.7C1388.7 105.3 1444.3 145.7 1500 163.7C1555.7 181.7 1611.3 177.3 1666.8 166.2C1722.3 155 1777.7 137 1833.2 133.2C1888.7 129.3 1944.3 139.7 1972.2 144.8L2000 150L2000 0L1972.2 0C1944.3 0 1888.7 0 1833.2 0C1777.7 0 1722.3 0 1666.8 0C1611.3 0 1555.7 0 1500 0C1444.3 0 1388.7 0 1333.2 0C1277.7 0 1222.3 0 1166.8 0C1111.3 0 1055.7 0 1000 0C944.3 0 888.7 0 833.2 0C777.7 0 722.3 0 666.8 0C611.3 0 555.7 0 500 0C444.3 0 388.7 0 333.2 0C277.7 0 222.3 0 166.8 0C111.3 0 55.7 0 27.8 0L0 0Z" fill="#499f3c"></path><path d="M0 139L27.8 131.5C55.7 124 111.3 109 166.8 101.5C222.3 94 277.7 94 333.2 93.2C388.7 92.3 444.3 90.7 500 90.8C555.7 91 611.3 93 666.8 102.8C722.3 112.7 777.7 130.3 833.2 136C888.7 141.7 944.3 135.3 1000 131C1055.7 126.7 1111.3 124.3 1166.8 117.8C1222.3 111.3 1277.7 100.7 1333.2 101C1388.7 101.3 1444.3 112.7 1500 105.5C1555.7 98.3 1611.3 72.7 1666.8 76.2C1722.3 79.7 1777.7 112.3 1833.2 116.3C1888.7 120.3 1944.3 95.7 1972.2 83.3L2000 71L2000 0L1972.2 0C1944.3 0 1888.7 0 1833.2 0C1777.7 0 1722.3 0 1666.8 0C1611.3 0 1555.7 0 1500 0C1444.3 0 1388.7 0 1333.2 0C1277.7 0 1222.3 0 1166.8 0C1111.3 0 1055.7 0 1000 0C944.3 0 888.7 0 833.2 0C777.7 0 722.3 0 666.8 0C611.3 0 555.7 0 500 0C444.3 0 388.7 0 333.2 0C277.7 0 222.3 0 166.8 0C111.3 0 55.7 0 27.8 0L0 0Z" fill="#8dcd82"></path><path d="M0 37L27.8 42C55.7 47 111.3 57 166.8 58.2C222.3 59.3 277.7 51.7 333.2 43C388.7 34.3 444.3 24.7 500 32.2C555.7 39.7 611.3 64.3 666.8 69.5C722.3 74.7 777.7 60.3 833.2 49.7C888.7 39 944.3 32 1000 32.8C1055.7 33.7 1111.3 42.3 1166.8 38.5C1222.3 34.7 1277.7 18.3 1333.2 17.2C1388.7 16 1444.3 30 1500 33.3C1555.7 36.7 1611.3 29.3 1666.8 24.8C1722.3 20.3 1777.7 18.7 1833.2 20.5C1888.7 22.3 1944.3 27.7 1972.2 30.3L2000 33L2000 0L1972.2 0C1944.3 0 1888.7 0 1833.2 0C1777.7 0 1722.3 0 1666.8 0C1611.3 0 1555.7 0 1500 0C1444.3 0 1388.7 0 1333.2 0C1277.7 0 1222.3 0 1166.8 0C1111.3 0 1055.7 0 1000 0C944.3 0 888.7 0 833.2 0C777.7 0 722.3 0 666.8 0C611.3 0 555.7 0 500 0C444.3 0 388.7 0 333.2 0C277.7 0 222.3 0 166.8 0C111.3 0 55.7 0 27.8 0L0 0Z" fill="#cffbc8"></path></svg>