<svg id="visual" viewBox="0 0 2000 540" width="2000" height="540" xmlns="http://www.w3.org/2000/svg" xmlns:xlink="http://www.w3.org/1999/xlink" version="1.1"><rect x="0" y="0" width="2000" height="540" fill="#001220"></rect><path d="M0 390L166.7 386C333.3 382 666.7 374 1000 367C1333.3 360 1666.7 354 1833.3 351L2000 348L2000 0L1833.3 0C1666.7 0 1333.3 0 1000 0C666.7 0 333.3 0 166.7 0L0 0Z" fill="#d3f2ff"></path><path d="M0 344L166.7 334.5C333.3 325 666.7 306 1000 299.7C1333.3 293.3 1666.7 299.7 1833.3 302.8L2000 306L2000 0L1833.3 0C1666.7 0 1333.3 0 1000 0C666.7 0 333.3 0 166.7 0L0 0Z" fill="#91c1e4"></path><path d="M0 257L166.7 252.7C333.3 248.3 666.7 239.7 1000 230.2C1333.3 220.7 1666.7 210.3 1833.3 205.2L2000 200L2000 0L1833.3 0C1666.7 0 1333.3 0 1000 0C666.7 0 333.3 0 166.7 0L0 0Z" fill="#618ec9"></path><path d="M0 158L166.7 158.8C333.3 159.7 666.7 161.3 1000 159.2C1333.3 157 1666.7 151 1833.3 148L2000 145L2000 0L1833.3 0C1666.7 0 1333.3 0 1000 0C666.7 0 333.3 0 166.7 0L0 0Z" fill="#4c59a6"></path><path d="M0 107L166.7 100.8C333.3 94.7 666.7 82.3 1000 76.7C1333.3 71 1666.7 72 1833.3 72.5L2000 73L2000 0L1833.3 0C1666.7 0 1333.3 0 1000 0C666.7 0 333.3 0 166.7 0L0 0Z" fill="#4a1d77"></path></svg>