<svg id="visual" viewBox="0 0 2000 200" width="2000" height="200" xmlns="http://www.w3.org/2000/svg" xmlns:xlink="http://www.w3.org/1999/xlink" version="1.1"><rect x="0" y="0" width="2000" height="200" fill="#001220"></rect><path d="M0 73L25.7 73.7C51.3 74.3 102.7 75.7 154 77.7C205.3 79.7 256.7 82.3 308 86.5C359.3 90.7 410.7 96.3 461.8 98.8C513 101.3 564 100.7 615.2 99C666.3 97.3 717.7 94.7 769 88C820.3 81.3 871.7 70.7 923 66.5C974.3 62.3 1025.7 64.7 1077 69.7C1128.3 74.7 1179.7 82.3 1231 86.2C1282.3 90 1333.7 90 1384.8 85.8C1436 81.7 1487 73.3 1538.2 69.7C1589.3 66 1640.7 67 1692 71.8C1743.3 76.7 1794.7 85.3 1846 86.2C1897.3 87 1948.7 80 1974.3 76.5L2000 73L2000 201L1974.3 201C1948.7 201 1897.3 201 1846 201C1794.7 201 1743.3 201 1692 201C1640.7 201 1589.3 201 1538.2 201C1487 201 1436 201 1384.8 201C1333.7 201 1282.3 201 1231 201C1179.7 201 1128.3 201 1077 201C1025.7 201 974.3 201 923 201C871.7 201 820.3 201 769 201C717.7 201 666.3 201 615.2 201C564 201 513 201 461.8 201C410.7 201 359.3 201 308 201C256.7 201 205.3 201 154 201C102.7 201 51.3 201 25.7 201L0 201Z" fill="#ffffff"></path><path d="M0 101L25.7 103.7C51.3 106.3 102.7 111.7 154 115.7C205.3 119.7 256.7 122.3 308 120.3C359.3 118.3 410.7 111.7 461.8 112.5C513 113.3 564 121.7 615.2 124.5C666.3 127.3 717.7 124.7 769 124.7C820.3 124.7 871.7 127.3 923 126C974.3 124.7 1025.7 119.3 1077 113.5C1128.3 107.7 1179.7 101.3 1231 102.8C1282.3 104.3 1333.7 113.7 1384.8 116.2C1436 118.7 1487 114.3 1538.2 113.3C1589.3 112.3 1640.7 114.7 1692 112.2C1743.3 109.7 1794.7 102.3 1846 97.5C1897.3 92.7 1948.7 90.3 1974.3 89.2L2000 88L2000 201L1974.3 201C1948.7 201 1897.3 201 1846 201C1794.7 201 1743.3 201 1692 201C1640.7 201 1589.3 201 1538.2 201C1487 201 1436 201 1384.8 201C1333.7 201 1282.3 201 1231 201C1179.7 201 1128.3 201 1077 201C1025.7 201 974.3 201 923 201C871.7 201 820.3 201 769 201C717.7 201 666.3 201 615.2 201C564 201 513 201 461.8 201C410.7 201 359.3 201 308 201C256.7 201 205.3 201 154 201C102.7 201 51.3 201 25.7 201L0 201Z" fill="#f0fbff"></path><path d="M0 136L25.7 133.3C51.3 130.7 102.7 125.3 154 125C205.3 124.7 256.7 129.3 308 130.5C359.3 131.7 410.7 129.3 461.8 130.8C513 132.3 564 137.7 615.2 137.3C666.3 137 717.7 131 769 128C820.3 125 871.7 125 923 129.8C974.3 134.7 1025.7 144.3 1077 148.8C1128.3 153.3 1179.7 152.7 1231 152.3C1282.3 152 1333.7 152 1384.8 149.3C1436 146.7 1487 141.3 1538.2 139.2C1589.3 137 1640.7 138 1692 139.3C1743.3 140.7 1794.7 142.3 1846 142C1897.3 141.7 1948.7 139.3 1974.3 138.2L2000 137L2000 201L1974.3 201C1948.7 201 1897.3 201 1846 201C1794.7 201 1743.3 201 1692 201C1640.7 201 1589.3 201 1538.2 201C1487 201 1436 201 1384.8 201C1333.7 201 1282.3 201 1231 201C1179.7 201 1128.3 201 1077 201C1025.7 201 974.3 201 923 201C871.7 201 820.3 201 769 201C717.7 201 666.3 201 615.2 201C564 201 513 201 461.8 201C410.7 201 359.3 201 308 201C256.7 201 205.3 201 154 201C102.7 201 51.3 201 25.7 201L0 201Z" fill="#e2f7ff"></path><path d="M0 161L25.7 159.5C51.3 158 102.7 155 154 154.3C205.3 153.7 256.7 155.3 308 158.3C359.3 161.3 410.7 165.7 461.8 164.3C513 163 564 156 615.2 156.7C666.3 157.3 717.7 165.7 769 166.8C820.3 168 871.7 162 923 159.5C974.3 157 1025.7 158 1077 157.5C1128.3 157 1179.7 155 1231 155.7C1282.3 156.3 1333.7 159.7 1384.8 160.5C1436 161.3 1487 159.7 1538.2 161.5C1589.3 163.3 1640.7 168.7 1692 168.3C1743.3 168 1794.7 162 1846 158.3C1897.3 154.7 1948.7 153.3 1974.3 152.7L2000 152L2000 201L1974.3 201C1948.7 201 1897.3 201 1846 201C1794.7 201 1743.3 201 1692 201C1640.7 201 1589.3 201 1538.2 201C1487 201 1436 201 1384.8 201C1333.7 201 1282.3 201 1231 201C1179.7 201 1128.3 201 1077 201C1025.7 201 974.3 201 923 201C871.7 201 820.3 201 769 201C717.7 201 666.3 201 615.2 201C564 201 513 201 461.8 201C410.7 201 359.3 201 308 201C256.7 201 205.3 201 154 201C102.7 201 51.3 201 25.7 201L0 201Z" fill="#d3f2ff"></path></svg>