<svg id="visual" viewBox="0 0 2000 200" width="2000" height="200" xmlns="http://www.w3.org/2000/svg" xmlns:xlink="http://www.w3.org/1999/xlink" version="1.1"><rect x="0" y="0" width="2000" height="200" fill="#CFFBC8"></rect><path d="M0 43L16.7 46.7C33.3 50.3 66.7 57.7 100 62.8C133.3 68 166.7 71 200 64.5C233.3 58 266.7 42 300 38.7C333.3 35.3 366.7 44.7 400 57.3C433.3 70 466.7 86 500 93C533.3 100 566.7 98 600 86.8C633.3 75.7 666.7 55.3 700 55.7C733.3 56 766.7 77 800 79.2C833.3 81.3 866.7 64.7 900 68.8C933.3 73 966.7 98 1000 104.7C1033.3 111.3 1066.7 99.7 1100 89C1133.3 78.3 1166.7 68.7 1200 71.2C1233.3 73.7 1266.7 88.3 1300 91.3C1333.3 94.3 1366.7 85.7 1400 71.7C1433.3 57.7 1466.7 38.3 1500 35.7C1533.3 33 1566.7 47 1600 58C1633.3 69 1666.7 77 1700 81.3C1733.3 85.7 1766.7 86.3 1800 76.5C1833.3 66.7 1866.7 46.3 1900 35.7C1933.3 25 1966.7 24 1983.3 23.5L2000 23L2000 201L1983.3 201C1966.7 201 1933.3 201 1900 201C1866.7 201 1833.3 201 1800 201C1766.7 201 1733.3 201 1700 201C1666.7 201 1633.3 201 1600 201C1566.7 201 1533.3 201 1500 201C1466.7 201 1433.3 201 1400 201C1366.7 201 1333.3 201 1300 201C1266.7 201 1233.3 201 1200 201C1166.7 201 1133.3 201 1100 201C1066.7 201 1033.3 201 1000 201C966.7 201 933.3 201 900 201C866.7 201 833.3 201 800 201C766.7 201 733.3 201 700 201C666.7 201 633.3 201 600 201C566.7 201 533.3 201 500 201C466.7 201 433.3 201 400 201C366.7 201 333.3 201 300 201C266.7 201 233.3 201 200 201C166.7 201 133.3 201 100 201C66.7 201 33.3 201 16.7 201L0 201Z" fill="#fff6da"></path><path d="M0 109L16.7 99C33.3 89 66.7 69 100 72.3C133.3 75.7 166.7 102.3 200 118.8C233.3 135.3 266.7 141.7 300 128.8C333.3 116 366.7 84 400 72.3C433.3 60.7 466.7 69.3 500 83.7C533.3 98 566.7 118 600 128.2C633.3 138.3 666.7 138.7 700 128.5C733.3 118.3 766.7 97.7 800 85C833.3 72.3 866.7 67.7 900 66.5C933.3 65.3 966.7 67.7 1000 77.8C1033.3 88 1066.7 106 1100 101.3C1133.3 96.7 1166.7 69.3 1200 57.7C1233.3 46 1266.7 50 1300 50C1333.3 50 1366.7 46 1400 58.3C1433.3 70.7 1466.7 99.3 1500 112C1533.3 124.7 1566.7 121.3 1600 118.5C1633.3 115.7 1666.7 113.3 1700 116.5C1733.3 119.7 1766.7 128.3 1800 128.5C1833.3 128.7 1866.7 120.3 1900 110.7C1933.3 101 1966.7 90 1983.3 84.5L2000 79L2000 201L1983.3 201C1966.7 201 1933.3 201 1900 201C1866.7 201 1833.3 201 1800 201C1766.7 201 1733.3 201 1700 201C1666.7 201 1633.3 201 1600 201C1566.7 201 1533.3 201 1500 201C1466.7 201 1433.3 201 1400 201C1366.7 201 1333.3 201 1300 201C1266.7 201 1233.3 201 1200 201C1166.7 201 1133.3 201 1100 201C1066.7 201 1033.3 201 1000 201C966.7 201 933.3 201 900 201C866.7 201 833.3 201 800 201C766.7 201 733.3 201 700 201C666.7 201 633.3 201 600 201C566.7 201 533.3 201 500 201C466.7 201 433.3 201 400 201C366.7 201 333.3 201 300 201C266.7 201 233.3 201 200 201C166.7 201 133.3 201 100 201C66.7 201 33.3 201 16.7 201L0 201Z" fill="#fff3cd"></path><path d="M0 116L16.7 125.8C33.3 135.7 66.7 155.3 100 161.5C133.3 167.7 166.7 160.3 200 147.3C233.3 134.3 266.7 115.7 300 110.8C333.3 106 366.7 115 400 114.8C433.3 114.7 466.7 105.3 500 104.5C533.3 103.7 566.7 111.3 600 111.3C633.3 111.3 666.7 103.7 700 108.5C733.3 113.3 766.7 130.7 800 129.5C833.3 128.3 866.7 108.7 900 103.8C933.3 99 966.7 109 1000 116.2C1033.3 123.3 1066.7 127.7 1100 135.7C1133.3 143.7 1166.7 155.3 1200 157C1233.3 158.7 1266.7 150.3 1300 151.5C1333.3 152.7 1366.7 163.3 1400 167.3C1433.3 171.3 1466.7 168.7 1500 158.8C1533.3 149 1566.7 132 1600 130C1633.3 128 1666.7 141 1700 150C1733.3 159 1766.7 164 1800 163C1833.3 162 1866.7 155 1900 142.2C1933.3 129.3 1966.7 110.7 1983.3 101.3L2000 92L2000 201L1983.3 201C1966.7 201 1933.3 201 1900 201C1866.7 201 1833.3 201 1800 201C1766.7 201 1733.3 201 1700 201C1666.7 201 1633.3 201 1600 201C1566.7 201 1533.3 201 1500 201C1466.7 201 1433.3 201 1400 201C1366.7 201 1333.3 201 1300 201C1266.7 201 1233.3 201 1200 201C1166.7 201 1133.3 201 1100 201C1066.7 201 1033.3 201 1000 201C966.7 201 933.3 201 900 201C866.7 201 833.3 201 800 201C766.7 201 733.3 201 700 201C666.7 201 633.3 201 600 201C566.7 201 533.3 201 500 201C466.7 201 433.3 201 400 201C366.7 201 333.3 201 300 201C266.7 201 233.3 201 200 201C166.7 201 133.3 201 100 201C66.7 201 33.3 201 16.7 201L0 201Z" fill="#fff0bd"></path><path d="M0 195L16.7 194.7C33.3 194.3 66.7 193.7 100 192.2C133.3 190.7 166.7 188.3 200 188.3C233.3 188.3 266.7 190.7 300 190.2C333.3 189.7 366.7 186.3 400 182C433.3 177.7 466.7 172.3 500 167.3C533.3 162.3 566.7 157.7 600 153.8C633.3 150 666.7 147 700 144.2C733.3 141.3 766.7 138.7 800 143.5C833.3 148.3 866.7 160.7 900 161.3C933.3 162 966.7 151 1000 147.5C1033.3 144 1066.7 148 1100 156.5C1133.3 165 1166.7 178 1200 183.7C1233.3 189.3 1266.7 187.7 1300 184.2C1333.3 180.7 1366.7 175.3 1400 172.7C1433.3 170 1466.7 170 1500 165.3C1533.3 160.7 1566.7 151.3 1600 144.3C1633.3 137.3 1666.7 132.7 1700 138.3C1733.3 144 1766.7 160 1800 160.3C1833.3 160.7 1866.7 145.3 1900 136.2C1933.3 127 1966.7 124 1983.3 122.5L2000 121L2000 201L1983.3 201C1966.7 201 1933.3 201 1900 201C1866.7 201 1833.3 201 1800 201C1766.7 201 1733.3 201 1700 201C1666.7 201 1633.3 201 1600 201C1566.7 201 1533.3 201 1500 201C1466.7 201 1433.3 201 1400 201C1366.7 201 1333.3 201 1300 201C1266.7 201 1233.3 201 1200 201C1166.7 201 1133.3 201 1100 201C1066.7 201 1033.3 201 1000 201C966.7 201 933.3 201 900 201C866.7 201 833.3 201 800 201C766.7 201 733.3 201 700 201C666.7 201 633.3 201 600 201C566.7 201 533.3 201 500 201C466.7 201 433.3 201 400 201C366.7 201 333.3 201 300 201C266.7 201 233.3 201 200 201C166.7 201 133.3 201 100 201C66.7 201 33.3 201 16.7 201L0 201Z" fill="#ffeba9"></path></svg>