<svg id="visual" viewBox="0 0 2000 200" width="2000" height="200" xmlns="http://www.w3.org/2000/svg" xmlns:xlink="http://www.w3.org/1999/xlink" version="1.1"><path d="M0 61L47.7 66C95.3 71 190.7 81 285.8 78C381 75 476 59 571.2 52C666.3 45 761.7 47 857 46C952.3 45 1047.7 41 1143 46C1238.3 51 1333.7 65 1428.8 66.7C1524 68.3 1619 57.7 1714.2 50.7C1809.3 43.7 1904.7 40.3 1952.3 38.7L2000 37L2000 0L1952.3 0C1904.7 0 1809.3 0 1714.2 0C1619 0 1524 0 1428.8 0C1333.7 0 1238.3 0 1143 0C1047.7 0 952.3 0 857 0C761.7 0 666.3 0 571.2 0C476 0 381 0 285.8 0C190.7 0 95.3 0 47.7 0L0 0Z" fill="#4fccff"></path><path d="M0 131L47.7 131C95.3 131 190.7 131 285.8 132C381 133 476 135 571.2 135C666.3 135 761.7 133 857 135.3C952.3 137.7 1047.7 144.3 1143 145C1238.3 145.7 1333.7 140.3 1428.8 135.3C1524 130.3 1619 125.7 1714.2 123.3C1809.3 121 1904.7 121 1952.3 121L2000 121L2000 35L1952.3 36.7C1904.7 38.3 1809.3 41.7 1714.2 48.7C1619 55.7 1524 66.3 1428.8 64.7C1333.7 63 1238.3 49 1143 44C1047.7 39 952.3 43 857 44C761.7 45 666.3 43 571.2 50C476 57 381 73 285.8 76C190.7 79 95.3 69 47.7 64L0 59Z" fill="#23a4ea"></path><path d="M0 177L47.7 172C95.3 167 190.7 157 285.8 154.7C381 152.3 476 157.7 571.2 159.3C666.3 161 761.7 159 857 160.7C952.3 162.3 1047.7 167.7 1143 172C1238.3 176.3 1333.7 179.7 1428.8 175.7C1524 171.7 1619 160.3 1714.2 153.7C1809.3 147 1904.7 145 1952.3 144L2000 143L2000 119L1952.3 119C1904.7 119 1809.3 119 1714.2 121.3C1619 123.7 1524 128.3 1428.8 133.3C1333.7 138.3 1238.3 143.7 1143 143C1047.7 142.3 952.3 135.7 857 133.3C761.7 131 666.3 133 571.2 133C476 133 381 131 285.8 130C190.7 129 95.3 129 47.7 129L0 129Z" fill="#1d7bd0"></path><path d="M0 201L47.7 201C95.3 201 190.7 201 285.8 201C381 201 476 201 571.2 201C666.3 201 761.7 201 857 201C952.3 201 1047.7 201 1143 201C1238.3 201 1333.7 201 1428.8 201C1524 201 1619 201 1714.2 201C1809.3 201 1904.7 201 1952.3 201L2000 201L2000 141L1952.3 142C1904.7 143 1809.3 145 1714.2 151.7C1619 158.3 1524 169.7 1428.8 173.7C1333.7 177.7 1238.3 174.3 1143 170C1047.7 165.7 952.3 160.3 857 158.7C761.7 157 666.3 159 571.2 157.3C476 155.7 381 150.3 285.8 152.7C190.7 155 95.3 165 47.7 170L0 175Z" fill="#3651ae"></path></svg>