<svg id="visual" viewBox="0 0 2000 200" width="2000" height="200" xmlns="http://www.w3.org/2000/svg" xmlns:xlink="http://www.w3.org/1999/xlink" version="1.1"><rect x="0" y="0" width="2000" height="200" fill="#001220"></rect><path d="M0 12L27.8 19.7C55.7 27.3 111.3 42.7 166.8 58.7C222.3 74.7 277.7 91.3 333.2 97.7C388.7 104 444.3 100 500 96.7C555.7 93.3 611.3 90.7 666.8 94.8C722.3 99 777.7 110 833.2 120C888.7 130 944.3 139 1000 139.5C1055.7 140 1111.3 132 1166.8 129.5C1222.3 127 1277.7 130 1333.2 111.3C1388.7 92.7 1444.3 52.3 1500 34.3C1555.7 16.3 1611.3 20.7 1666.8 31.8C1722.3 43 1777.7 61 1833.2 64.8C1888.7 68.7 1944.3 58.3 1972.2 53.2L2000 48L2000 201L1972.2 201C1944.3 201 1888.7 201 1833.2 201C1777.7 201 1722.3 201 1666.8 201C1611.3 201 1555.7 201 1500 201C1444.3 201 1388.7 201 1333.2 201C1277.7 201 1222.3 201 1166.8 201C1111.3 201 1055.7 201 1000 201C944.3 201 888.7 201 833.2 201C777.7 201 722.3 201 666.8 201C611.3 201 555.7 201 500 201C444.3 201 388.7 201 333.2 201C277.7 201 222.3 201 166.8 201C111.3 201 55.7 201 27.8 201L0 201Z" fill="#ffffff"></path><path d="M0 59L27.8 66.5C55.7 74 111.3 89 166.8 96.5C222.3 104 277.7 104 333.2 104.8C388.7 105.7 444.3 107.3 500 107.2C555.7 107 611.3 105 666.8 95.2C722.3 85.3 777.7 67.7 833.2 62C888.7 56.3 944.3 62.7 1000 67C1055.7 71.3 1111.3 73.7 1166.8 80.2C1222.3 86.7 1277.7 97.3 1333.2 97C1388.7 96.7 1444.3 85.3 1500 92.5C1555.7 99.7 1611.3 125.3 1666.8 121.8C1722.3 118.3 1777.7 85.7 1833.2 81.7C1888.7 77.7 1944.3 102.3 1972.2 114.7L2000 127L2000 201L1972.2 201C1944.3 201 1888.7 201 1833.2 201C1777.7 201 1722.3 201 1666.8 201C1611.3 201 1555.7 201 1500 201C1444.3 201 1388.7 201 1333.2 201C1277.7 201 1222.3 201 1166.8 201C1111.3 201 1055.7 201 1000 201C944.3 201 888.7 201 833.2 201C777.7 201 722.3 201 666.8 201C611.3 201 555.7 201 500 201C444.3 201 388.7 201 333.2 201C277.7 201 222.3 201 166.8 201C111.3 201 55.7 201 27.8 201L0 201Z" fill="#e8fde3"></path><path d="M0 161L27.8 156C55.7 151 111.3 141 166.8 139.8C222.3 138.7 277.7 146.3 333.2 155C388.7 163.7 444.3 173.3 500 165.8C555.7 158.3 611.3 133.7 666.8 128.5C722.3 123.3 777.7 137.7 833.2 148.3C888.7 159 944.3 166 1000 165.2C1055.7 164.3 1111.3 155.7 1166.8 159.5C1222.3 163.3 1277.7 179.7 1333.2 180.8C1388.7 182 1444.3 168 1500 164.7C1555.7 161.3 1611.3 168.7 1666.8 173.2C1722.3 177.7 1777.7 179.3 1833.2 177.5C1888.7 175.7 1944.3 170.3 1972.2 167.7L2000 165L2000 201L1972.2 201C1944.3 201 1888.7 201 1833.2 201C1777.7 201 1722.3 201 1666.8 201C1611.3 201 1555.7 201 1500 201C1444.3 201 1388.7 201 1333.2 201C1277.7 201 1222.3 201 1166.8 201C1111.3 201 1055.7 201 1000 201C944.3 201 888.7 201 833.2 201C777.7 201 722.3 201 666.8 201C611.3 201 555.7 201 500 201C444.3 201 388.7 201 333.2 201C277.7 201 222.3 201 166.8 201C111.3 201 55.7 201 27.8 201L0 201Z" fill="#cffbc8"></path></svg>